<svg id="Flat-Logo" xmlns="http://www.w3.org/2000/svg" viewBox="0 0 832 453.47"><g id="LightMode_Logo" data-name="LightMode Logo"><path d="M391.2,313.69q53.61,28.44,83,79.78T503.6,512q0,66.54-29.39,118.21t-83.33,80.1q-53.94,28.44-125,28.42H96V285.27H265.89Q337.59,285.27,391.2,313.69ZM356.32,608.9q34.89-34.24,34.88-96.9t-34.88-97.54q-34.87-34.87-97.54-34.88H206.46V643.13h52.32Q321.44,643.13,356.32,608.9Z" transform="translate(-96 -285.27)"/><polygon points="532.91 0 407.61 453.46 282.3 453.46 407.61 0 532.91 0"/><path d="M928,285.27,771,588.87V738.73H660.58V588.87l-157-303.6H628.92l87.85,189.91L804,285.27Z" transform="translate(-96 -285.27)"/></g></svg>